<?xml version="1.0" encoding="UTF-8" standalone="no"?>
<!DOCTYPE svg PUBLIC "-//W3C//DTD SVG 1.1//EN" "http://www.w3.org/Graphics/SVG/1.1/DTD/svg11.dtd">
<svg width="100%" height="100%" viewBox="0 0 400 94" version="1.1" xmlns="http://www.w3.org/2000/svg" xmlns:xlink="http://www.w3.org/1999/xlink" xml:space="preserve" xmlns:serif="http://www.serif.com/" style="fill-rule:evenodd;clip-rule:evenodd;stroke-linecap:round;">
    <g transform="matrix(1,0,0,1,0,-153)">
        <path d="M108.615,217.297C103.38,224.161 95.13,228.599 85.859,228.599C83.672,228.599 81.516,228.365 79.432,227.885L73.609,237.797C77.552,239.073 81.661,239.724 85.859,239.724C91.224,239.724 96.427,238.677 101.328,236.604C106.063,234.599 110.307,231.74 113.953,228.089C117.115,224.932 119.682,221.323 121.615,217.344C121.917,216.724 122.198,216.094 122.469,215.458C123.724,212.484 124.609,209.396 125.104,206.224L92.177,206.224L85.646,217.297L108.615,217.297Z" style="fill:rgb(243,246,250);fill-rule:nonzero;"/>
    </g>
    <g transform="matrix(1,0,0,1,0,-153)">
        <path d="M69.99,163.563C65.151,165.672 60.833,168.688 57.167,172.516C56.583,173.12 56.016,173.755 55.474,174.396L55.474,174.401C55.385,174.505 55.292,174.615 55.203,174.724L70.052,199.995L61.958,213.771L47.516,189.547C46.599,192.917 46.125,196.427 46.125,199.995C46.125,204.115 46.75,208.141 47.974,212.01C48.344,213.177 48.771,214.328 49.25,215.464C50.755,219.026 52.755,222.307 55.203,225.271C55.859,226.063 56.542,226.833 57.266,227.578L57.276,227.599L57.766,228.089C59.568,229.891 61.516,231.5 63.599,232.911L63.604,232.911L82.938,199.995L69.24,176.682C74.052,173.229 79.797,171.365 85.859,171.365C95.125,171.365 103.38,175.828 108.615,182.635L85.646,182.635L92.177,193.766L125.104,193.766C124.609,190.594 123.724,187.51 122.469,184.531C122.198,183.896 121.911,183.266 121.615,182.651C119.682,178.667 117.115,175.057 113.953,171.901C110.307,168.255 106.063,165.391 101.328,163.385C96.422,161.318 91.219,160.266 85.859,160.266C80.349,160.266 75.01,161.375 69.99,163.563Z" style="fill:rgb(243,246,250);fill-rule:nonzero;"/>
    </g>
    <g transform="matrix(0,-0.75,0.75,0,148.649,86.7812)">
        <path d="M2.667,2.669L103.431,2.669" style="fill:none;fill-rule:nonzero;stroke:rgb(243,246,250);stroke-width:5.33px;"/>
    </g>
    <g transform="matrix(1,0,0,1,168.629,58.6321)">
        <g>
            <g>
                <path d="M5.938,0L2.125,0L2.125,-22.896L5.938,-22.896L5.938,-12.625L14.5,-22.896L19.208,-22.896L9.75,-11.854L19.563,0L14.75,0L5.938,-10.771L5.938,0Z" style="fill:rgb(243,246,250);fill-rule:nonzero;"/>
            </g>
        </g>
    </g>
    <g transform="matrix(1,0,0,1,193.523,58.6321)">
        <g>
            <g>
                <path d="M4.229,0L0.271,0L8.458,-22.896L12.667,-22.896L20.854,0L16.896,0L15.208,-5L5.938,-5L4.229,0ZM10.563,-18.812L7.042,-8.333L14.063,-8.333L10.563,-18.812Z" style="fill:rgb(243,246,250);fill-rule:nonzero;"/>
            </g>
        </g>
    </g>
    <g transform="matrix(1,0,0,1,219.826,58.6321)">
        <g>
            <g>
                <path d="M5.938,0L2.125,0L2.125,-22.896L6.75,-22.896L16.438,-5.25L16.438,-22.896L20.229,-22.896L20.229,0L15.625,0L5.938,-17.646L5.938,0Z" style="fill:rgb(243,246,250);fill-rule:nonzero;"/>
            </g>
        </g>
    </g>
    <g transform="matrix(1,0,0,1,247.389,58.6321)">
        <g>
            <g>
                <path d="M5.938,0L2.125,0L2.125,-22.896L17.271,-22.896L17.271,-19.479L5.938,-19.479L5.938,-13.167L16.021,-13.167L16.021,-9.771L5.938,-9.771L5.938,0Z" style="fill:rgb(243,246,250);fill-rule:nonzero;"/>
            </g>
        </g>
    </g>
    <g transform="matrix(1,0,0,1,270.664,58.6321)">
        <g>
            <g>
                <path d="M15.833,0L2.125,0L2.125,-22.896L5.938,-22.896L5.938,-3.417L15.833,-3.417L15.833,0Z" style="fill:rgb(243,246,250);fill-rule:nonzero;"/>
            </g>
        </g>
    </g>
    <g transform="matrix(1,0,0,1,292.049,58.6321)">
        <g>
            <g>
                <path d="M12.25,0.396C10.385,0.396 8.76,0.073 7.375,-0.562C6,-1.198 4.859,-2.068 3.958,-3.167C3.052,-4.276 2.38,-5.542 1.938,-6.958C1.505,-8.375 1.292,-9.875 1.292,-11.458C1.292,-13.042 1.505,-14.531 1.938,-15.937C2.38,-17.354 3.052,-18.609 3.958,-19.708C4.859,-20.802 6,-21.667 7.375,-22.292C8.76,-22.927 10.385,-23.25 12.25,-23.25C14.094,-23.25 15.708,-22.927 17.083,-22.292C18.458,-21.667 19.594,-20.802 20.5,-19.708C21.417,-18.609 22.089,-17.354 22.521,-15.937C22.964,-14.531 23.188,-13.042 23.188,-11.458C23.188,-9.875 22.964,-8.375 22.521,-6.958C22.089,-5.542 21.417,-4.276 20.5,-3.167C19.594,-2.068 18.458,-1.198 17.083,-0.562C15.708,0.073 14.094,0.396 12.25,0.396ZM12.25,-3.021C13.76,-3.021 15.042,-3.38 16.083,-4.104C17.125,-4.823 17.906,-5.818 18.438,-7.083C18.979,-8.359 19.25,-9.818 19.25,-11.458C19.25,-13.094 18.979,-14.547 18.438,-15.812C17.906,-17.073 17.125,-18.062 16.083,-18.771C15.042,-19.49 13.76,-19.854 12.25,-19.854C10.75,-19.854 9.469,-19.49 8.417,-18.771C7.359,-18.062 6.563,-17.073 6.021,-15.812C5.49,-14.547 5.229,-13.094 5.229,-11.458C5.229,-9.818 5.49,-8.359 6.021,-7.083C6.563,-5.818 7.359,-4.823 8.417,-4.104C9.469,-3.38 10.75,-3.021 12.25,-3.021Z" style="fill:rgb(243,246,250);fill-rule:nonzero;"/>
            </g>
        </g>
    </g>
    <g transform="matrix(1,0,0,1,321.741,58.6321)">
        <g>
            <g>
                <path d="M12.083,0L6.75,0L0.479,-22.896L4.479,-22.896L9.5,-3.896L14.229,-22.896L18.75,-22.896L23.5,-3.875L28.5,-22.896L32.5,-22.896L26.25,0L20.875,0L16.5,-17.937L12.083,0Z" style="fill:rgb(243,246,250);fill-rule:nonzero;"/>
            </g>
        </g>
    </g>
</svg>
