<svg xmlns="http://www.w3.org/2000/svg" xmlns:xlink="http://www.w3.org/1999/xlink" width="400" zoomAndPan="magnify" viewBox="0 0 300 299.999988" height="400" preserveAspectRatio="xMidYMid meet" version="1.0"><defs><g/><clipPath id="6a69a48416"><path d="M 55 154 L 93.84375 154 L 93.84375 180 L 55 180 Z M 55 154 " clip-rule="nonzero"/></clipPath><clipPath id="1760543e00"><path d="M 34.59375 120.160156 L 93.84375 120.160156 L 93.84375 175 L 34.59375 175 Z M 34.59375 120.160156 " clip-rule="nonzero"/></clipPath></defs><g clip-path="url(#6a69a48416)"><path fill="#f3f6fa" d="M 81.460938 162.972656 C 77.535156 168.121094 71.347656 171.449219 64.394531 171.449219 C 62.753906 171.449219 61.136719 171.273438 59.574219 170.914062 L 55.207031 178.347656 C 58.164062 179.304688 61.246094 179.792969 64.394531 179.792969 C 68.417969 179.792969 72.320312 179.007812 75.996094 177.453125 C 79.546875 175.949219 82.730469 173.804688 85.464844 171.066406 C 87.835938 168.699219 89.761719 165.992188 91.210938 163.007812 C 91.4375 162.542969 91.648438 162.070312 91.851562 161.59375 C 92.792969 159.363281 93.457031 157.046875 93.828125 154.667969 L 69.132812 154.667969 L 64.234375 162.972656 Z M 81.460938 162.972656 " fill-opacity="1" fill-rule="nonzero"/></g><g clip-path="url(#1760543e00)"><path fill="#f3f6fa" d="M 52.492188 122.671875 C 48.863281 124.253906 45.625 126.515625 42.875 129.386719 C 42.4375 129.839844 42.011719 130.316406 41.605469 130.796875 L 41.605469 130.800781 C 41.539062 130.878906 41.46875 130.960938 41.402344 131.042969 L 52.539062 149.996094 L 46.46875 160.328125 L 35.636719 142.160156 C 34.949219 144.6875 34.59375 147.320312 34.59375 149.996094 C 34.59375 153.085938 35.0625 156.105469 35.980469 159.007812 C 36.257812 159.882812 36.578125 160.746094 36.9375 161.597656 C 38.066406 164.269531 39.566406 166.730469 41.402344 168.953125 C 41.894531 169.546875 42.40625 170.125 42.949219 170.683594 L 42.957031 170.699219 L 43.324219 171.066406 C 44.675781 172.417969 46.136719 173.625 47.699219 174.683594 C 47.699219 174.683594 47.699219 174.683594 47.703125 174.683594 L 62.203125 149.996094 L 51.929688 132.511719 C 55.539062 129.921875 59.847656 128.523438 64.394531 128.523438 C 71.34375 128.523438 77.535156 131.871094 81.460938 136.976562 L 64.234375 136.976562 L 69.132812 145.324219 L 93.828125 145.324219 C 93.457031 142.945312 92.792969 140.632812 91.851562 138.398438 C 91.648438 137.921875 91.433594 137.449219 91.210938 136.988281 C 89.761719 134 87.835938 131.292969 85.464844 128.925781 C 82.730469 126.191406 79.546875 124.042969 75.996094 122.539062 C 72.316406 120.988281 68.414062 120.199219 64.394531 120.199219 C 60.261719 120.199219 56.257812 121.03125 52.492188 122.671875 Z M 52.492188 122.671875 " fill-opacity="1" fill-rule="nonzero"/></g><path stroke-linecap="round" transform="matrix(0, -0.75, 0.75, 0, 111.487122, 179.835924)" fill="none" stroke-linejoin="miter" d="M 1.999982 2.001545 L 77.572905 2.001545 " stroke="#f3f6fa" stroke-width="4" stroke-opacity="1" stroke-miterlimit="4"/><g fill="#f3f6fa" fill-opacity="1"><g transform="translate(126.47191, 158.724085)"><g><path d="M 4.453125 0 L 1.59375 0 L 1.59375 -17.171875 L 4.453125 -17.171875 L 4.453125 -9.46875 L 10.875 -17.171875 L 14.40625 -17.171875 L 7.3125 -8.890625 L 14.671875 0 L 11.0625 0 L 4.453125 -8.078125 Z M 4.453125 0 "/></g></g></g><g fill="#f3f6fa" fill-opacity="1"><g transform="translate(145.14232, 158.724085)"><g><path d="M 3.171875 0 L 0.203125 0 L 6.34375 -17.171875 L 9.5 -17.171875 L 15.640625 0 L 12.671875 0 L 11.40625 -3.75 L 4.453125 -3.75 Z M 7.921875 -14.109375 L 5.28125 -6.25 L 10.546875 -6.25 Z M 7.921875 -14.109375 "/></g></g></g><g fill="#f3f6fa" fill-opacity="1"><g transform="translate(164.869849, 158.724085)"><g><path d="M 4.453125 0 L 1.59375 0 L 1.59375 -17.171875 L 5.0625 -17.171875 L 12.328125 -3.9375 L 12.328125 -17.171875 L 15.171875 -17.171875 L 15.171875 0 L 11.71875 0 L 4.453125 -13.234375 Z M 4.453125 0 "/></g></g></g><g fill="#f3f6fa" fill-opacity="1"><g transform="translate(185.542032, 158.724085)"><g><path d="M 4.453125 0 L 1.59375 0 L 1.59375 -17.171875 L 12.953125 -17.171875 L 12.953125 -14.609375 L 4.453125 -14.609375 L 4.453125 -9.875 L 12.015625 -9.875 L 12.015625 -7.328125 L 4.453125 -7.328125 Z M 4.453125 0 "/></g></g></g><g fill="#f3f6fa" fill-opacity="1"><g transform="translate(202.997884, 158.724085)"><g><path d="M 11.875 0 L 1.59375 0 L 1.59375 -17.171875 L 4.453125 -17.171875 L 4.453125 -2.5625 L 11.875 -2.5625 Z M 11.875 0 "/></g></g></g><g fill="#f3f6fa" fill-opacity="1"><g transform="translate(219.036756, 158.724085)"><g><path d="M 9.1875 0.296875 C 7.789062 0.296875 6.570312 0.0546875 5.53125 -0.421875 C 4.5 -0.898438 3.644531 -1.550781 2.96875 -2.375 C 2.289062 -3.207031 1.785156 -4.15625 1.453125 -5.21875 C 1.128906 -6.28125 0.96875 -7.40625 0.96875 -8.59375 C 0.96875 -9.78125 1.128906 -10.898438 1.453125 -11.953125 C 1.785156 -13.015625 2.289062 -13.957031 2.96875 -14.78125 C 3.644531 -15.601562 4.5 -16.25 5.53125 -16.71875 C 6.570312 -17.195312 7.789062 -17.4375 9.1875 -17.4375 C 10.570312 -17.4375 11.78125 -17.195312 12.8125 -16.71875 C 13.84375 -16.25 14.695312 -15.601562 15.375 -14.78125 C 16.0625 -13.957031 16.566406 -13.015625 16.890625 -11.953125 C 17.222656 -10.898438 17.390625 -9.78125 17.390625 -8.59375 C 17.390625 -7.40625 17.222656 -6.28125 16.890625 -5.21875 C 16.566406 -4.15625 16.0625 -3.207031 15.375 -2.375 C 14.695312 -1.550781 13.84375 -0.898438 12.8125 -0.421875 C 11.78125 0.0546875 10.570312 0.296875 9.1875 0.296875 Z M 9.1875 -2.265625 C 10.320312 -2.265625 11.28125 -2.535156 12.0625 -3.078125 C 12.84375 -3.617188 13.429688 -4.363281 13.828125 -5.3125 C 14.234375 -6.269531 14.4375 -7.363281 14.4375 -8.59375 C 14.4375 -9.820312 14.234375 -10.910156 13.828125 -11.859375 C 13.429688 -12.804688 12.84375 -13.546875 12.0625 -14.078125 C 11.28125 -14.617188 10.320312 -14.890625 9.1875 -14.890625 C 8.0625 -14.890625 7.101562 -14.617188 6.3125 -14.078125 C 5.519531 -13.546875 4.921875 -12.804688 4.515625 -11.859375 C 4.117188 -10.910156 3.921875 -9.820312 3.921875 -8.59375 C 3.921875 -7.363281 4.117188 -6.269531 4.515625 -5.3125 C 4.921875 -4.363281 5.519531 -3.617188 6.3125 -3.078125 C 7.101562 -2.535156 8.0625 -2.265625 9.1875 -2.265625 Z M 9.1875 -2.265625 "/></g></g></g><g fill="#f3f6fa" fill-opacity="1"><g transform="translate(241.305865, 158.724085)"><g><path d="M 9.0625 0 L 5.0625 0 L 0.359375 -17.171875 L 3.359375 -17.171875 L 7.125 -2.921875 L 10.671875 -17.171875 L 14.0625 -17.171875 L 17.625 -2.90625 L 21.375 -17.171875 L 24.375 -17.171875 L 19.6875 0 L 15.65625 0 L 12.375 -13.453125 Z M 9.0625 0 "/></g></g></g></svg>